<svg width="32" height="32" viewBox="0 0 32 32" fill="none" xmlns="http://www.w3.org/2000/svg">
<path d="M15.7459 7.55566C11.3015 7.55566 7.61896 11.1747 7.61896 15.6826C7.61896 20.1906 11.238 23.8096 15.7459 23.8096C20.2539 23.8096 23.8729 20.1271 23.8729 15.6826C23.8729 11.2382 20.1904 7.55566 15.7459 7.55566ZM15.7459 20.889C12.8888 20.889 10.5396 18.5398 10.5396 15.6826C10.5396 12.8255 12.8888 10.4763 15.7459 10.4763C18.6031 10.4763 20.9523 12.8255 20.9523 15.6826C20.9523 18.5398 18.6031 20.889 15.7459 20.889Z" fill="white"/>
<path d="M24.1902 9.20646C25.2071 9.20646 26.0315 8.3821 26.0315 7.3652C26.0315 6.34829 25.2071 5.52393 24.1902 5.52393C23.1733 5.52393 22.3489 6.34829 22.3489 7.3652C22.3489 8.3821 23.1733 9.20646 24.1902 9.20646Z" fill="white"/>
<path d="M28.9524 2.60317C27.3016 0.888889 24.9524 0 22.2857 0H9.20635C3.68254 0 0 3.68254 0 9.20635V22.2222C0 24.9524 0.888889 27.3016 2.66667 29.0159C4.38095 30.6667 6.66667 31.4921 9.26984 31.4921H22.2222C24.9524 31.4921 27.2381 30.6032 28.8889 29.0159C30.6032 27.3651 31.4921 25.0159 31.4921 22.2857V9.20635C31.4921 6.53968 30.6032 4.25397 28.9524 2.60317ZM28.6984 22.2857C28.6984 24.254 28 25.8413 26.8571 26.9206C25.7143 28 24.127 28.5714 22.2222 28.5714H9.26984C7.36508 28.5714 5.77778 28 4.63492 26.9206C3.49206 25.7778 2.92064 24.1905 2.92064 22.2222V9.20635C2.92064 7.30159 3.49206 5.71429 4.63492 4.57143C5.71429 3.49206 7.36508 2.92063 9.26984 2.92063H22.3492C24.254 2.92063 25.8413 3.49206 26.9841 4.63492C28.0635 5.77778 28.6984 7.36508 28.6984 9.20635V22.2857Z" fill="white"/>
</svg>
