<svg width="23" height="23" viewBox="0 0 23 23" fill="none" xmlns="http://www.w3.org/2000/svg">
<path d="M13.12 5C14.0967 5.19057 14.9944 5.66826 15.698 6.37194C16.4017 7.07561 16.8794 7.97326 17.07 8.95M13.12 1C15.1492 1.22544 17.0416 2.13417 18.4862 3.57701C19.9309 5.01984 20.842 6.91101 21.07 8.94M9.29695 12.8631C8.09537 11.6615 7.14659 10.3028 6.45059 8.85323C6.39072 8.72854 6.36079 8.66619 6.33779 8.5873C6.25607 8.30695 6.31477 7.96269 6.48478 7.72526C6.53262 7.65845 6.58978 7.60129 6.70409 7.48698C7.0537 7.13737 7.2285 6.96257 7.34278 6.78679C7.77378 6.1239 7.77378 5.26932 7.34279 4.60643C7.2285 4.43065 7.0537 4.25585 6.70409 3.90624L6.50922 3.71137C5.97778 3.17993 5.71206 2.91421 5.42668 2.76987C4.85912 2.4828 4.18885 2.4828 3.62129 2.76987C3.33591 2.91421 3.07019 3.17993 2.53874 3.71137L2.38111 3.86901C1.85149 4.39863 1.58668 4.66344 1.38443 5.02348C1.16001 5.42298 0.998645 6.04347 1.00001 6.5017C1.00124 6.91464 1.08134 7.19687 1.24155 7.76131C2.10252 10.7947 3.72699 13.6571 6.11497 16.045C8.50295 18.433 11.3653 20.0575 14.3987 20.9185C14.9632 21.0787 15.2454 21.1588 15.6583 21.16C16.1165 21.1614 16.737 21 17.1365 20.7756C17.4966 20.5733 17.7614 20.3085 18.291 19.7789L18.4486 19.6213C18.9801 19.0898 19.2458 18.8241 19.3902 18.5387C19.6772 17.9712 19.6772 17.3009 19.3902 16.7333C19.2458 16.448 18.9801 16.1822 18.4486 15.6508L18.2538 15.4559C17.9042 15.1063 17.7294 14.9315 17.5536 14.8172C16.8907 14.3862 16.0361 14.3862 15.3732 14.8172C15.1975 14.9315 15.0226 15.1063 14.673 15.4559C14.5587 15.5702 14.5016 15.6274 14.4348 15.6752C14.1973 15.8453 13.8531 15.904 13.5727 15.8222C13.4938 15.7992 13.4315 15.7693 13.3068 15.7094C11.8572 15.0134 10.4985 14.0646 9.29695 12.8631Z" stroke="white" stroke-width="2" stroke-linecap="round" stroke-linejoin="round"/>
</svg>
