<svg width="150" height="56" viewBox="0 0 150 56" fill="none" xmlns="http://www.w3.org/2000/svg">
<rect width="149.859" height="56" fill="#4D2C19"/>
<g clip-path="url(#clip0_2436_65)">
<rect width="121.983" height="45.6338" transform="translate(14.2166 5.52344)" fill="#4D2C19"/>
<path d="M102.699 51.2533V44.1816H104.134V50.052H107.704V51.2533H102.699Z" fill="#FFEFE2"/>
<path d="M98.1143 51.257H96.5523L95.9315 49.6374H93.0895L92.5027 51.257H90.98L93.7491 44.127H95.2671L98.1143 51.257ZM95.4707 48.4361L94.4911 45.7903L93.5307 48.4361H95.4707Z" fill="#FFEFE2"/>
<path d="M84.1911 51.257V45.3331H82.0815V44.127H87.7314V45.3331H85.6267V51.257H84.1911Z" fill="#FFEFE2"/>
<path d="M71.644 51.257V44.127H73.0408L75.9508 48.8884V44.127H77.2848V51.257H75.8445L72.9781 46.6074V51.257H71.644Z" fill="#FFEFE2"/>
<path d="M61.2534 51.257V44.127H66.5253V45.3331H62.689V46.9138H66.2586V48.1151H62.689V50.0557H66.6611V51.257H61.2534Z" fill="#FFEFE2"/>
<path d="M50.2925 44.127H52.9163C53.508 44.127 53.9591 44.1723 54.2694 44.2631C54.6866 44.3863 55.0439 44.6052 55.3413 44.9197C55.6388 45.2342 55.8651 45.6201 56.0203 46.0772C56.1755 46.5312 56.2531 47.0921 56.2531 47.7601C56.2531 48.347 56.1804 48.8528 56.0348 49.2775C55.857 49.7963 55.6032 50.2162 55.2734 50.5372C55.0245 50.7804 54.6882 50.9701 54.2646 51.1062C53.9477 51.2068 53.5242 51.257 52.9939 51.257H50.2925V44.127ZM51.7281 45.3331V50.0557H52.7999C53.2008 50.0557 53.4902 50.033 53.6681 49.9876C53.9009 49.9293 54.0932 49.8304 54.2452 49.6909C54.4004 49.5515 54.5265 49.3229 54.6235 49.0052C54.7205 48.6842 54.769 48.2481 54.769 47.6969C54.769 47.1457 54.7205 46.7225 54.6235 46.4274C54.5265 46.1324 54.3907 45.9022 54.2161 45.7368C54.0415 45.5714 53.82 45.4596 53.5517 45.4012C53.3512 45.3558 52.9584 45.3331 52.3731 45.3331H51.7281Z" fill="#FFEFE2"/>
<path d="M25.0835 15.1805C26.4901 14.1328 28.372 13.7555 30.17 13.7344C31.9014 13.7344 33.6994 14.0179 35.1727 14.8721C36.0566 15.3951 36.8287 16.1919 36.9535 17.1631C37.0589 17.9426 36.9405 18.864 36.2114 19.3907C35.4544 19.8964 34.4586 19.9768 33.5403 19.9826C33.5273 18.9233 33.437 17.8086 32.8499 16.8623C32.4627 16.2321 31.7487 15.7609 30.9443 15.6652C29.8453 15.5253 28.6452 15.7092 27.7547 16.3279C26.7632 17.0634 26.2686 18.182 25.9632 19.2681C25.475 21.0686 25.4147 22.9343 25.4298 24.7789C25.4621 26.2423 25.6126 27.7248 26.146 29.1193C26.5095 30.054 27.0923 30.9658 28.0236 31.5366C29.2151 32.2836 30.7507 32.4254 32.1638 32.2798C33.9338 32.094 35.5619 31.0922 36.3792 29.6824C37.0502 30.2647 37.1707 31.2053 36.8631 31.9657C36.5469 32.7797 35.8178 33.408 35.0006 33.839C33.7252 34.5017 32.2347 34.7642 30.7701 34.7871C29.1678 34.8235 27.5289 34.5515 26.1223 33.8486C24.6706 33.115 23.5888 31.8967 22.9285 30.5463C21.9435 28.5715 21.6961 26.3802 21.7069 24.2406C21.7219 22.3884 21.8854 20.5093 22.5457 18.7414C23.0382 17.3929 23.8383 16.0923 25.0878 15.1844L25.0835 15.1805Z" fill="#E9811F"/>
<path d="M41.3855 7.59741C41.3704 7.063 41.3597 6.52859 41.3898 5.99609C43.8094 6.01908 46.2289 5.98843 48.6507 6.01333C48.6399 14.0372 48.6507 22.061 48.6464 30.0867C48.6421 30.8357 48.6399 31.6478 49.1238 32.2972C49.4701 32.7894 50.1067 33.0576 50.7369 33.1304C51.2466 33.1975 51.7628 33.2089 52.2768 33.1898C52.3113 33.7223 52.2854 34.2567 52.2897 34.7892C48.6657 34.7873 45.0396 34.7969 41.4156 34.7835L41.379 34.7528C41.3618 34.2356 41.379 33.7146 41.3747 33.1955C42.2802 33.1859 43.2846 33.2396 44.0588 32.7454C44.8138 32.2417 45.0245 31.3452 45.0202 30.5503C45.0202 23.7294 45.0202 16.9085 45.0202 10.0894C45.0288 9.33856 44.8008 8.50151 44.0847 8.03605C43.3039 7.54378 42.2931 7.59932 41.3833 7.59741H41.3855Z" fill="#E9811F"/>
<path d="M63.0399 13.7638C64.6616 13.6623 66.3413 13.8098 67.8318 14.4189C69.077 14.915 70.1311 15.7501 70.8836 16.7596C71.7439 17.9012 72.2492 19.2248 72.5462 20.5656C72.9098 22.2531 72.9567 23.9828 72.8557 25.6952C72.7441 27.3386 72.4408 28.9993 71.6989 30.5183C71.1312 31.6867 70.2427 32.7459 69.0663 33.4815C67.8318 34.2649 66.3284 34.6576 64.8272 34.7553C63.1861 34.8683 61.4892 34.7093 59.9858 34.0849C58.6632 33.5504 57.562 32.6291 56.8028 31.5335C56.0242 30.4168 55.5575 29.1487 55.2801 27.8654C54.9639 26.3694 54.8972 24.8428 54.9488 23.3239C55.0177 21.7359 55.2392 20.1365 55.8328 18.629C56.3361 17.361 57.1447 16.1562 58.3362 15.3077C59.6525 14.3365 61.3537 13.8672 63.0421 13.7638H63.0399ZM63.2249 15.7616C62.3237 15.8401 61.4398 16.1619 60.7838 16.727C59.8117 17.5506 59.3536 18.7248 59.0718 19.8664C58.6373 21.7838 58.6137 23.7548 58.6911 25.7009C58.7879 27.2544 58.9578 28.8461 59.6611 30.2884C60.1257 31.2576 60.9408 32.1464 62.0699 32.5333C63.141 32.8954 64.3497 32.9126 65.4509 32.6406C66.6166 32.3514 67.5285 31.522 68.0361 30.5643C68.8512 29.0549 69.0233 27.3539 69.1265 25.7028C69.2061 23.7376 69.1781 21.7493 68.7329 19.8166C68.4318 18.6099 67.9156 17.3591 66.8101 16.5527C65.8208 15.8248 64.4701 15.6486 63.227 15.7616H63.2249Z" fill="#E9811F"/>
<path d="M104.244 14.4279C105.631 13.8245 107.214 13.6597 108.743 13.7632C110.406 13.8705 112.064 14.4374 113.255 15.4947C114.541 16.6172 115.253 18.1553 115.613 19.703C115.993 21.2852 115.939 22.9114 115.931 24.5204C111.664 24.5165 107.399 24.5319 103.134 24.5127C103.104 25.3785 103.203 26.2462 103.33 27.1043C103.555 28.4088 103.953 29.7419 104.87 30.8088C105.47 31.5175 106.343 32.0328 107.313 32.2416C109.102 32.6304 111.079 32.3297 112.597 31.393C113.296 30.9678 113.922 30.4276 114.341 29.7687C114.675 29.8894 114.862 30.1977 114.989 30.4813C115.275 31.2455 114.905 32.0672 114.378 32.6763C113.449 33.7184 112.017 34.2892 110.595 34.5937C108.59 34.9481 106.427 34.8695 104.556 34.0881C103.119 33.5038 101.945 32.4791 101.155 31.2724C99.9336 29.4086 99.4843 27.225 99.4043 25.0912C99.3617 23.5531 99.4455 22.0035 99.7679 20.4883C100.028 19.2912 100.446 18.1074 101.145 17.052C101.876 15.9468 102.938 14.9948 104.244 14.4336V14.4279ZM105.371 16.5789C104.625 17.1803 104.177 18.0116 103.867 18.8506C103.444 20.0228 103.267 21.2545 103.19 22.4804C106.143 22.4804 109.096 22.4938 112.047 22.4728C112.03 21.2066 111.941 19.929 111.561 18.7031C111.283 17.8316 110.838 16.9505 110.014 16.3797C109.317 15.8702 108.375 15.7227 107.496 15.784C106.715 15.83 105.945 16.1039 105.368 16.5789H105.371Z" fill="#E9811F"/>
<path d="M75.15 14.4648C78.3546 14.4667 81.5591 14.4648 84.7642 14.4648C84.7723 14.9935 84.7556 15.5202 84.7747 16.0489C84.0648 16.0719 83.2908 16.0336 82.6757 16.409C82.1186 16.7346 81.9486 17.3725 81.9682 17.9318C81.9811 18.6788 82.3208 19.378 82.5593 20.0848C83.2543 21.9811 83.9422 23.8774 84.6372 25.7737C85.089 26.9842 85.4975 28.2063 85.8649 29.4379C86.1317 30.3344 86.4115 31.2327 86.5772 32.1502C86.6026 32.1426 86.6587 32.131 86.6845 32.1234C87.2761 30.2347 88.0741 28.4036 88.7663 26.5456C89.6094 24.2969 90.4505 22.0462 91.2935 19.7993C91.5838 19.0811 91.8161 18.3149 91.7132 17.5468C91.6547 17.1081 91.4229 16.6618 90.9884 16.4243C90.371 16.07 89.6137 16.0757 88.9105 16.0451C88.9363 15.5183 88.9129 14.9916 88.9234 14.4648C91.6744 14.4706 94.4229 14.4648 97.1715 14.4668C97.1628 14.9992 97.1868 15.5336 97.1585 16.0662C96.5588 16.0604 95.8963 16.0317 95.378 16.3458C94.8789 16.6714 94.5992 17.1828 94.352 17.6732C93.8356 18.742 93.4591 19.8607 93.0228 20.9563C91.9733 23.6858 90.9194 26.4153 89.8699 29.1449C89.1342 31.0258 88.4372 32.9183 87.6804 34.7916C86.5188 34.7763 85.3577 34.7859 84.1942 34.7878C82.0884 29.1736 80.0325 23.5422 77.9397 17.9241C77.7031 17.3629 77.4277 16.7653 76.8601 16.4052C76.3652 16.0891 75.7286 16.0681 75.1438 16.0585C75.1352 15.5279 75.1308 14.9954 75.1481 14.4648H75.15Z" fill="#E9811F"/>
<path d="M128.333 12.2646C129.213 12.2666 130.093 12.2666 130.972 12.2646C132.714 14.1514 134.171 16.2661 135.134 18.5588C135.852 20.3249 136.164 22.2097 136.175 24.085C136.196 25.7322 135.96 27.3814 135.437 28.9636C134.573 31.6357 132.923 34.0549 130.966 36.2021C130.089 36.1964 129.209 36.1964 128.332 36.2021C130.168 33.9897 131.388 31.4 132.007 28.7089C132.837 25.1423 132.663 21.388 131.476 17.9019C130.796 15.883 129.736 13.9637 128.332 12.2646H128.333Z" fill="#FFEFE2"/>
<path d="M121.389 16.9131C122.765 16.9131 124.141 16.9131 125.518 16.9131C125.518 18.1486 125.518 19.3821 125.518 20.6176C124.14 20.6176 122.763 20.6176 121.386 20.6176C121.386 19.384 121.386 18.1486 121.386 16.915L121.389 16.9131Z" fill="#FFEFE2"/>
<path d="M121.333 27.5449C122.71 27.5449 124.086 27.5506 125.463 27.543C125.463 28.7784 125.463 30.0139 125.463 31.2493C124.086 31.2493 122.71 31.2493 121.333 31.2493C121.331 30.0139 121.331 28.7804 121.333 27.5449Z" fill="#FFEFE2"/>
</g>
<defs>
<clipPath id="clip0_2436_65">
<rect width="121.983" height="45.6338" fill="white" transform="translate(14.2166 5.52344)"/>
</clipPath>
</defs>
</svg>
