<svg width="80" height="80" viewBox="0 0 80 80" fill="none" xmlns="http://www.w3.org/2000/svg">
<g clip-path="url(#clip0_1_4972)">
<rect width="80" height="80" fill="white"/>
<path d="M26.2246 49.4689L26.6271 48.8471L26.0888 48.4988L25.6669 48.9814L26.2246 49.4689ZM33.1111 53.9252L32.7086 54.5471L33.2453 54.8944L33.6674 54.4143L33.1111 53.9252ZM70.578 12.0999C70.5517 11.6917 70.1995 11.382 69.7912 11.4082L63.1383 11.8362C62.7301 11.8625 62.4204 12.2147 62.4467 12.623C62.4729 13.0312 62.8252 13.3409 63.2334 13.3146L69.1471 12.9342L69.5275 18.8479C69.5538 19.2562 69.906 19.5659 70.3143 19.5396C70.7226 19.5133 71.0322 19.1611 71.006 18.7528L70.578 12.0999ZM11.1731 67.8135C11.4423 67.5055 11.4109 67.0375 11.1029 66.7683C10.7948 66.499 10.3269 66.5304 10.0576 66.8385L11.1731 67.8135ZM11.4349 65.2628C11.1657 65.5709 11.1971 66.0388 11.5051 66.3081C11.8131 66.5773 12.2811 66.5459 12.5503 66.2379L11.4349 65.2628ZM13.4685 65.1874C13.7378 64.8794 13.7063 64.4115 13.3983 64.1422C13.0903 63.873 12.6224 63.9044 12.3531 64.2124L13.4685 65.1874ZM13.7304 62.6368C13.4612 62.9448 13.4926 63.4128 13.8006 63.682C14.1086 63.9513 14.5766 63.9198 14.8458 63.6118L13.7304 62.6368ZM15.764 62.5614C16.0333 62.2534 16.0018 61.7854 15.6938 61.5162C15.3858 61.247 14.9178 61.2784 14.6486 61.5864L15.764 62.5614ZM16.0259 60.0108C15.7567 60.3188 15.7881 60.7867 16.0961 61.056C16.4041 61.3252 16.8721 61.2938 17.1413 60.9858L16.0259 60.0108ZM18.0595 59.9354C18.3287 59.6274 18.2973 59.1594 17.9893 58.8902C17.6813 58.6209 17.2133 58.6524 16.9441 58.9604L18.0595 59.9354ZM18.3214 57.3847C18.0521 57.6928 18.0836 58.1607 18.3916 58.43C18.6996 58.6992 19.1675 58.6678 19.4368 58.3598L18.3214 57.3847ZM20.355 57.3093C20.6242 57.0013 20.5928 56.5334 20.2848 56.2641C19.9768 55.9949 19.5088 56.0263 19.2396 56.3343L20.355 57.3093ZM20.6169 54.7587C20.3476 55.0667 20.379 55.5347 20.6871 55.8039C20.9951 56.0732 21.463 56.0417 21.7323 55.7337L20.6169 54.7587ZM22.6505 54.6833C22.9197 54.3753 22.8883 53.9073 22.5803 53.6381C22.2723 53.3689 21.8043 53.4003 21.5351 53.7083L22.6505 54.6833ZM22.9123 52.1327C22.6431 52.4407 22.6745 52.9086 22.9825 53.1779C23.2906 53.4471 23.7585 53.4157 24.0278 53.1077L22.9123 52.1327ZM24.9459 52.0573C25.2152 51.7493 25.1838 51.2813 24.8757 51.0121C24.5677 50.7428 24.0998 50.7743 23.8305 51.0823L24.9459 52.0573ZM25.2078 49.5066C24.9386 49.8147 24.97 50.2826 25.278 50.5519C25.586 50.8211 26.054 50.7897 26.3232 50.4817L25.2078 49.5066ZM26.5108 50.5365C26.8543 50.7587 27.3129 50.6605 27.5352 50.317C27.7574 49.9735 27.6592 49.5149 27.3157 49.2927L26.5108 50.5365ZM29.3816 50.6296C29.0382 50.4073 28.5796 50.5056 28.3573 50.849C28.1351 51.1925 28.2333 51.6511 28.5768 51.8734L29.3816 50.6296ZM29.9541 52.7646C30.2975 52.9869 30.7561 52.8886 30.9784 52.5452C31.2006 52.2017 31.1024 51.7431 30.7589 51.5208L29.9541 52.7646ZM32.8249 52.8577C32.4814 52.6355 32.0228 52.7337 31.8005 53.0772C31.5783 53.4206 31.6765 53.8792 32.02 54.1015L32.8249 52.8577ZM34.1571 53.8573C34.4272 53.55 34.3971 53.082 34.0899 52.8119C33.7826 52.5418 33.3146 52.5719 33.0444 52.8791L34.1571 53.8573ZM34.5136 51.208C34.2434 51.5153 34.2736 51.9833 34.5808 52.2534C34.8881 52.5235 35.3561 52.4934 35.6262 52.1862L34.5136 51.208ZM36.6056 51.0721C36.8757 50.7649 36.8456 50.2968 36.5384 50.0267C36.2311 49.7566 35.7631 49.7867 35.493 50.0939L36.6056 51.0721ZM36.9621 48.4228C36.692 48.7301 36.7221 49.1981 37.0293 49.4682C37.3366 49.7383 37.8046 49.7082 38.0747 49.401L36.9621 48.4228ZM39.0541 48.2869C39.3242 47.9797 39.2941 47.5116 38.9869 47.2415C38.6796 46.9714 38.2116 47.0015 37.9415 47.3088L39.0541 48.2869ZM39.4106 45.6376C39.1405 45.9449 39.1706 46.4129 39.4778 46.6831C39.7851 46.9532 40.2531 46.9231 40.5232 46.6158L39.4106 45.6376ZM41.5026 45.5017C41.7728 45.1945 41.7426 44.7264 41.4354 44.4563C41.1281 44.1862 40.6601 44.2163 40.39 44.5236L41.5026 45.5017ZM41.8591 42.8525C41.589 43.1597 41.6191 43.6278 41.9263 43.8979C42.2336 44.168 42.7016 44.1379 42.9718 43.8306L41.8591 42.8525ZM43.9512 42.7165C44.2213 42.4093 44.1912 41.9412 43.8839 41.6711C43.5767 41.401 43.1086 41.4311 42.8385 41.7384L43.9512 42.7165ZM44.3076 40.0673C44.0375 40.3745 44.0676 40.8426 44.3749 41.1127C44.6821 41.3828 45.1502 41.3527 45.4203 41.0454L44.3076 40.0673ZM46.3997 39.9314C46.6698 39.6241 46.6397 39.1561 46.3324 38.886C46.0252 38.6158 45.5571 38.646 45.287 38.9532L46.3997 39.9314ZM46.7561 37.2821C46.486 37.5893 46.5161 38.0574 46.8234 38.3275C47.1306 38.5976 47.5987 38.5675 47.8688 38.2602L46.7561 37.2821ZM48.8482 37.1462C49.1183 36.8389 49.0882 36.3709 48.7809 36.1008C48.4737 35.8307 48.0056 35.8608 47.7355 36.168L48.8482 37.1462ZM49.2046 34.4969C48.9345 34.8042 48.9646 35.2722 49.2719 35.5423C49.5791 35.8124 50.0472 35.7823 50.3173 35.4751L49.2046 34.4969ZM51.2967 34.361C51.5668 34.0537 51.5367 33.5857 51.2295 33.3156C50.9222 33.0455 50.4542 33.0756 50.184 33.3828L51.2967 34.361ZM51.6532 31.7117C51.383 32.019 51.4132 32.487 51.7204 32.7571C52.0277 33.0272 52.4957 32.9971 52.7658 32.6899L51.6532 31.7117ZM53.7452 31.5758C54.0153 31.2686 53.9852 30.8005 53.678 30.5304C53.3707 30.2603 52.9027 30.2904 52.6326 30.5976L53.7452 31.5758ZM54.1017 28.9265C53.8316 29.2338 53.8617 29.7018 54.1689 29.9719C54.4762 30.2421 54.9442 30.2119 55.2143 29.9047L54.1017 28.9265ZM56.1937 28.7906C56.4638 28.4834 56.4337 28.0153 56.1265 27.7452C55.8192 27.4751 55.3512 27.5052 55.0811 27.8125L56.1937 28.7906ZM56.5502 26.1414C56.2801 26.4486 56.3102 26.9166 56.6174 27.1868C56.9247 27.4569 57.3927 27.4268 57.6628 27.1195L56.5502 26.1414ZM58.6422 26.0054C58.9123 25.6982 58.8822 25.2301 58.575 24.96C58.2677 24.6899 57.7997 24.72 57.5296 25.0273L58.6422 26.0054ZM58.9987 23.3562C58.7286 23.6634 58.7587 24.1315 59.0659 24.4016C59.3732 24.6717 59.8412 24.6416 60.1114 24.3343L58.9987 23.3562ZM61.0908 23.2202C61.3609 22.913 61.3308 22.445 61.0235 22.1748C60.7163 21.9047 60.2482 21.9348 59.9781 22.2421L61.0908 23.2202ZM61.4472 20.571C61.1771 20.8782 61.2072 21.3463 61.5145 21.6164C61.8217 21.8865 62.2897 21.8564 62.5599 21.5491L61.4472 20.571ZM63.5393 20.4351C63.8094 20.1278 63.7793 19.6598 63.472 19.3897C63.1648 19.1196 62.6967 19.1497 62.4266 19.4569L63.5393 20.4351ZM63.8957 17.7858C63.6256 18.0931 63.6557 18.5611 63.963 18.8312C64.2702 19.1013 64.7383 19.0712 65.0084 18.764L63.8957 17.7858ZM65.9878 17.6499C66.2579 17.3426 66.2278 16.8746 65.9205 16.6045C65.6133 16.3344 65.1452 16.3645 64.8751 16.6717L65.9878 17.6499ZM66.3442 15.0006C66.0741 15.3079 66.1042 15.7759 66.4115 16.046C66.7187 16.3161 67.1868 16.286 67.4569 15.9788L66.3442 15.0006ZM68.4363 14.8647C68.7064 14.5574 68.6763 14.0894 68.369 13.8193C68.0618 13.5492 67.5937 13.5793 67.3236 13.8865L68.4363 14.8647ZM68.7927 12.2154C68.5226 12.5227 68.5527 12.9907 68.86 13.2608C69.1672 13.5309 69.6353 13.5008 69.9054 13.1936L68.7927 12.2154ZM10.714 68.3387L11.1731 67.8135L10.0576 66.8385L9.59854 67.3637L10.714 68.3387ZM12.5503 66.2379L13.4685 65.1874L12.3531 64.2124L11.4349 65.2628L12.5503 66.2379ZM14.8458 63.6118L15.764 62.5614L14.6486 61.5864L13.7304 62.6368L14.8458 63.6118ZM17.1413 60.9858L18.0595 59.9354L16.9441 58.9604L16.0259 60.0108L17.1413 60.9858ZM19.4368 58.3598L20.355 57.3093L19.2396 56.3343L18.3214 57.3847L19.4368 58.3598ZM21.7323 55.7337L22.6505 54.6833L21.5351 53.7083L20.6169 54.7587L21.7323 55.7337ZM24.0278 53.1077L24.9459 52.0573L23.8305 51.0823L22.9123 52.1327L24.0278 53.1077ZM26.3232 50.4817L26.7823 49.9565L25.6669 48.9814L25.2078 49.5066L26.3232 50.4817ZM25.8222 50.0908L26.5108 50.5365L27.3157 49.2927L26.6271 48.8471L25.8222 50.0908ZM28.5768 51.8734L29.9541 52.7646L30.7589 51.5208L29.3816 50.6296L28.5768 51.8734ZM32.02 54.1015L32.7086 54.5471L33.5135 53.3034L32.8249 52.8577L32.02 54.1015ZM33.6674 54.4143L34.1571 53.8573L33.0444 52.8791L32.5547 53.4362L33.6674 54.4143ZM35.6262 52.1862L36.6056 51.0721L35.493 50.0939L34.5136 51.208L35.6262 52.1862ZM38.0747 49.401L39.0541 48.2869L37.9415 47.3088L36.9621 48.4228L38.0747 49.401ZM40.5232 46.6158L41.5026 45.5017L40.39 44.5236L39.4106 45.6376L40.5232 46.6158ZM42.9718 43.8306L43.9512 42.7165L42.8385 41.7384L41.8591 42.8525L42.9718 43.8306ZM45.4203 41.0454L46.3997 39.9314L45.287 38.9532L44.3076 40.0673L45.4203 41.0454ZM47.8688 38.2602L48.8482 37.1462L47.7355 36.168L46.7561 37.2821L47.8688 38.2602ZM50.3173 35.4751L51.2967 34.361L50.184 33.3828L49.2046 34.4969L50.3173 35.4751ZM52.7658 32.6899L53.7452 31.5758L52.6326 30.5976L51.6532 31.7117L52.7658 32.6899ZM55.2143 29.9047L56.1937 28.7906L55.0811 27.8125L54.1017 28.9265L55.2143 29.9047ZM57.6628 27.1195L58.6422 26.0054L57.5296 25.0273L56.5502 26.1414L57.6628 27.1195ZM60.1114 24.3343L61.0908 23.2202L59.9781 22.2421L58.9987 23.3562L60.1114 24.3343ZM62.5599 21.5491L63.5393 20.4351L62.4266 19.4569L61.4472 20.571L62.5599 21.5491ZM65.0084 18.764L65.9878 17.6499L64.8751 16.6717L63.8957 17.7858L65.0084 18.764ZM67.4569 15.9788L68.4363 14.8647L67.3236 13.8865L66.3442 15.0006L67.4569 15.9788ZM69.9054 13.1936L70.3951 12.6365L69.2825 11.6584L68.7927 12.2154L69.9054 13.1936Z" fill="black"/>
<path d="M10.1562 12.1475V67.8512H69.8388" stroke="black" stroke-width="1.48148" stroke-linecap="round"/>
<circle cx="45.979" cy="35.5123" r="15.9153" fill="white"/>
<circle cx="44.9952" cy="34.5181" r="15.9153" stroke="black" stroke-width="1.48148"/>
<path d="M55.941 35.5111C56.4903 35.5111 56.9404 35.9574 56.8905 36.5045C56.7906 37.6008 56.5255 38.6778 56.1028 39.6984C55.5529 41.0259 54.747 42.2321 53.7309 43.2482C52.7149 44.2642 51.5087 45.0702 50.1811 45.62C48.8536 46.1699 47.4308 46.4529 45.9939 46.4529C44.557 46.4529 43.1342 46.1699 41.8066 45.62C40.4791 45.0702 39.2729 44.2642 38.2569 43.2482C37.2408 42.2321 36.4349 41.0259 35.885 39.6984C35.4622 38.6778 35.1972 37.6008 35.0973 36.5045C35.0474 35.9574 35.4974 35.5111 36.0468 35.5111L45.9939 35.5111H55.941Z" fill="#F0F9FF"/>
<path d="M55.1016 38.7045C55.5244 37.6839 55.7894 36.6069 55.8894 35.5106C55.9392 34.9635 55.4892 34.5172 54.9398 34.5172H44.9927L35.0456 34.5172C34.4963 34.5172 34.0462 34.9635 34.0961 35.5106C34.1961 36.6069 34.4611 37.6839 34.8838 38.7045C35.4337 40.032 36.2397 41.2382 37.2557 42.2543C38.2718 43.2703 39.478 44.0763 40.8055 44.6261C42.133 45.176 43.5558 45.459 44.9927 45.459C46.4296 45.459 47.8525 45.176 49.18 44.6261C50.5075 44.0763 51.7137 43.2703 52.7298 42.2543C53.7458 41.2382 54.5518 40.032 55.1016 38.7045Z" stroke="#C7E0F2" stroke-width="1.48148"/>
</g>
<defs>
<clipPath id="clip0_1_4972">
<rect width="80" height="80" fill="white"/>
</clipPath>
</defs>
</svg>
